<svg id="Layer_1" data-name="Layer 1" xmlns="http://www.w3.org/2000/svg" viewBox="0 0 512 511.99"><defs><style>.cls-1{fill:#ffa100;}</style></defs><path class="cls-1" d="M503.1,355.76,372.33,297.55a15,15,0,0,0-16.85,3.24c-8.68,8.92-29.19,29.83-41.74,42.16-25-17.53-51.64-40.57-77.77-67.21l-.21-.21c-26.25-25.74-48.45-51.48-66.12-76.65,15.15-15.29,41.81-41.61,42.14-41.93A15,15,0,0,0,215,140.18L157,9.68a15,15,0,0,0-17.54-8.41L38.83,27.79C8.29,35.56-6.62,67.54,2.81,98.16c29.11,94.51,71,175.08,152.83,258l.08.08.53.52.08.09C264.43,463.5,362,493.55,414.34,509.69c30.31,9.34,62.51-5.2,70.37-36l26.78-100.36A15,15,0,0,0,503.1,355.76ZM455.7,466l-.05.19c-3.53,14-18.54,19.09-32.48,14.79-53.44-16.47-142.87-44-245.73-145.48l-.48-.48C75.49,232.19,45.77,135.7,31.48,89.33c-4.3-14,.83-28.95,14.79-32.48l.14,0,88.37-23.28,48.55,109.35c-12.42,12.29-36.72,36.41-43.88,44a15,15,0,0,0-1.63,18.55c19.79,30.07,45.64,60.84,76.83,91.43,31,31.64,63,58.57,92.46,77.86a15,15,0,0,0,18.22-1.37c7.91-7.08,32-31.58,44.33-44.13L479.2,378Z" transform="translate(0 -0.5)"/><path class="cls-1" d="M256,30.5c124.62,0,226,100.93,226,225a15,15,0,0,0,30,0C512,114.89,397.16.5,256,.5a15,15,0,0,0,0,30Z" transform="translate(0 -0.5)"/><path class="cls-1" d="M256,90.5c91,0,165,74,165,165a15,15,0,0,0,30,0c0-107.53-87.48-195-195-195a15,15,0,0,0,0,30Z" transform="translate(0 -0.5)"/><path class="cls-1" d="M256,150.5a105.12,105.12,0,0,1,105,105,15,15,0,0,0,30,0c0-74.44-60.56-135-135-135a15,15,0,0,0,0,30Z" transform="translate(0 -0.5)"/></svg>