<svg id="Layer_2" height="512" viewBox="0 0 512 512" width="512" xmlns="http://www.w3.org/2000/svg" xmlns:xlink="http://www.w3.org/1999/xlink" data-name="Layer 2"><linearGradient id="linear-gradient" gradientUnits="userSpaceOnUse" x1="43.93" x2="468.07" y1="43.93" y2="468.07"><stop offset="0" stop-color="#64b5f6"/><stop offset="1" stop-color="#1976d2"/></linearGradient><linearGradient id="linear-gradient-2" gradientUnits="userSpaceOnUse" x1="208.61" x2="469.45" y1="205.84" y2="466.68"><stop offset="0" stop-opacity=".35"/><stop offset="1" stop-opacity="0"/></linearGradient><g id="Icon"><g id="Open_Double_Quotation_Ditto_mark" data-name="Open Double Quotation, Ditto mark"><rect id="Background" fill="url(#linear-gradient)" height="512" rx="150" width="512"/><path d="m511.27 376.95c-6.86 69.25-60.81 124.66-129.38 133.74l-208.92-208.92 26.88-87.17 37.59-10.59 45.67 45.67 19.76-33.17 35.47-12.5z" fill="url(#linear-gradient-2)"/><path d="m161.97 270.46c0-5.6 1.09-11.82 3.28-18.66 2.19-6.83 4.92-13.6 8.2-20.3s6.94-12.92 10.97-18.66 7.9-10.39 11.59-13.95l41.43 5.13c-4.38 3.42-8.38 7.25-12 11.48-3.62 4.24-7.01 8.68-10.15 13.33 5.06.41 9.67 1.78 13.84 4.1 4.17 2.33 7.76 5.33 10.77 9.02s5.33 7.97 6.97 12.82 2.46 10.08 2.46 15.69c0 4.65-.75 9.47-2.26 14.46s-3.93 9.57-7.28 13.74-7.83 7.62-13.43 10.36c-5.61 2.74-12.51 4.1-20.71 4.1-7.52 0-14.02-1.03-19.48-3.08-5.47-2.05-10.02-4.95-13.64-8.72-3.62-3.76-6.29-8.24-8-13.43s-2.56-11-2.56-17.43zm100.69 0c0-5.6 1.09-11.82 3.28-18.66 2.19-6.83 4.92-13.6 8.2-20.3s6.94-12.92 10.97-18.66 7.9-10.39 11.59-13.95l41.63 5.13c-4.38 3.42-8.41 7.25-12.1 11.48-3.69 4.24-7.11 8.68-10.25 13.33 5.06.41 9.67 1.78 13.84 4.1 4.17 2.33 7.76 5.33 10.77 9.02s5.33 7.97 6.97 12.82 2.46 10.08 2.46 15.69c0 4.65-.75 9.47-2.26 14.46s-3.93 9.57-7.28 13.74-7.83 7.62-13.43 10.36c-5.61 2.74-12.51 4.1-20.71 4.1-7.38 0-13.84-1.03-19.38-3.08s-10.08-4.95-13.64-8.72c-3.56-3.76-6.22-8.24-8-13.43s-2.67-11-2.67-17.43z" fill="#fff"/></g></g></svg>