<svg id="Layer_1" data-name="Layer 1" xmlns="http://www.w3.org/2000/svg" viewBox="0 0 85.99 56.88"><defs><style>.cls-1{fill:#ffa100;stroke:#ffa100;stroke-miterlimit:10;stroke-width:0.75px;}</style></defs><path class="cls-1" d="M92.12,76.22a1.34,1.34,0,0,0,.08-.46V22.64a1.39,1.39,0,0,0-.08-.46s0,0,0-.06a1.33,1.33,0,0,0-.27-.46l0,0h0a1.54,1.54,0,0,0-.44-.33l0,0a1.36,1.36,0,0,0-.5-.12H8.35a1.46,1.46,0,0,0-.51.12l0,0a1.31,1.31,0,0,0-.44.33h0a0,0,0,0,0,0,0,1.53,1.53,0,0,0-.28.46s0,0,0,.06a1.7,1.7,0,0,0-.08.46V75.77a1.51,1.51,0,0,0,.09.47.43.43,0,0,1,0,.05,1.58,1.58,0,0,0,.28.47l0,0s0,0,0,0a1,1,0,0,0,.15.14l.08.06a1.32,1.32,0,0,0,.2.12l.05,0a1.45,1.45,0,0,0,.59.13H90.72a1.44,1.44,0,0,0,.58-.13l.08,0,.18-.1.08-.07.15-.13a0,0,0,0,1,0,0l0,0a1.64,1.64,0,0,0,.27-.46A.64.64,0,0,0,92.12,76.22ZM9.93,26l25,23.06-25,23.25ZM61.1,48a1.37,1.37,0,0,0-.3.22s0,.09-.07.12L49.58,58.61,12.27,24.14H86.89Zm-24,3.16L48.58,61.74a1.45,1.45,0,0,0,1,.4,1.43,1.43,0,0,0,1-.4L61.93,51.26l25,23H12.25Zm27-1.9L89.23,26V72.37Z" transform="translate(-6.59 -20.76)"/></svg>