<svg xmlns="http://www.w3.org/2000/svg" version="1.1" xmlns:xlink="http://www.w3.org/1999/xlink" xmlns:svgjs="http://svgjs.com/svgjs" width="512" height="512" x="0" y="0" viewBox="0 0 490.547 490.547" style="enable-background:new 0 0 512 512" xml:space="preserve"><g><path d="M251.089 141.867c13.602-13.25 13.856-35.018.624-48.568-13.25-13.587-34.969-13.889-48.537-.639-13.586 13.246-13.889 34.968-.624 48.535 13.201 13.6 34.969 13.871 48.537.672zM210 371.783c-13.568 13.217-13.857 34.953-.623 48.523 13.199 13.599 34.969 13.887 48.568.668 13.57-13.248 13.841-35.016.592-48.568-13.249-13.6-34.951-13.871-48.537-.623z" fill="#ffa100" data-original="#000000" data-dm-inline-fill="" style="--dm-inline-fill:#d48100;"></path><path d="m266.576 247.029-49.656-14.225-7.496-24.293c9.974-11.491 9.798-28.832-1.023-39.939l-8.808-9.029c-3.947-4.074-10.69-7.495-13.918-8.311l-72.766-18.667c-6.633-1.726-13.696.384-18.332 5.448l-43.79 47.725c-6.937 7.575-6.442 19.354 1.118 26.289a18.529 18.529 0 0 0 12.577 4.906 18.632 18.632 0 0 0 13.714-6.025l36.246-39.539 24.26 6.219-51.812 50.486c-7.957 6.809-15.149 17.611-10.58 28.48l20.474 48.714L12.065 349.2c-10.949 5.674-15.231 19.162-9.558 30.095 5.657 10.868 19.065 15.215 30.093 9.541l103.021-53.412c2.955-1.533 5.259-3.725 7.191-6.201l11.252 12.451-16.462 60.891c-3.212 11.876 3.834 24.149 15.727 27.361 12.02 3.213 24.18-3.932 27.361-15.727l19.641-72.639c1.967-7.318.113-15.135-4.986-20.76l-47.178-52.262 31.404-30.605 4.779 15.452a18.57 18.57 0 0 0 12.642 12.404l59.34 16.988c9.909 2.846 20.185-2.924 22.999-12.752 2.828-9.877-2.878-20.168-12.755-22.996z" fill="#ffa100" data-original="#000000" data-dm-inline-fill="" style="--dm-inline-fill:#d48100;"></path><path d="m489.461 228.503-21.751-61.018a18.614 18.614 0 0 0-14.753-12.147l-74.301-11.171c-3.389-.496-10.836.049-16.045 2.238l-11.65 4.891c-14.272 6.023-21.24 21.927-16.492 36.406l-16.352 19.435-51.287-6.217c-10.436-1.23-19.481 6.026-20.711 16.221-1.23 10.212 6.025 19.468 16.222 20.698l61.29 7.432c6.105.766 12.34-1.6 16.494-6.49l10.371-12.355 18.684 44.382-30.844 22.04a22.613 22.613 0 0 0-7.017 8.232l-48.362 97.377c-5.482 11.027-.976 24.437 10.068 29.918 10.996 5.435 24.405 1.039 29.936-10.067l37.652-75.853 66.518 80.182c7.832 9.414 21.88 10.805 31.436 2.928 9.493-7.881 10.804-21.946 2.926-31.438l-60.94-73.454 37.831-36.917c8.245-8.04 6.137-19.691 1.66-29.617l-28.367-67.377 24.74 3.706 18.012 50.519c3.468 9.75 14.191 14.735 23.766 11.268 9.667-3.437 14.717-14.081 11.266-23.752zM367.022 125.82c17.486-7.334 25.668-27.456 18.316-44.955-7.352-17.453-27.475-25.686-44.94-18.316-17.485 7.35-25.716 27.488-18.364 44.988 7.384 17.451 27.519 25.683 44.988 18.283z" fill="#ffa100" data-original="#000000" data-dm-inline-fill="" style="--dm-inline-fill:#d48100;"></path></g></svg>