<?xml version="1.0" encoding="utf-8"?>
<!-- Generator: Adobe Illustrator 24.3.0, SVG Export Plug-In . SVG Version: 6.00 Build 0)  -->
<svg version="1.1" id="Layer_1" xmlns="http://www.w3.org/2000/svg" xmlns:xlink="http://www.w3.org/1999/xlink" x="0px" y="0px"
	 viewBox="0 0 512 512" style="enable-background:new 0 0 512 512;" xml:space="preserve">
<style type="text/css">
	.st0{fill:#FFA100;}
</style>
<path class="st0" d="M256.16,0.94c84.66,0.08,163.91,59.92,183,150.1c7.75,36.6,1.3,71.17-12.88,105.02
	c-20.43,48.78-47.08,94.13-76.93,137.55c-24.93,36.26-51.29,71.54-77.3,107.04c-9.64,13.15-21.84,12.97-31.77,0.21
	c-44.92-57.73-87.17-117.29-123.08-181.13c-15.11-26.86-28.41-54.55-38.64-83.72c-13.36-38.13-11.55-75.95,2.95-112.96
	C106.26,59.86,152.48,20.78,218.57,5.67C230.82,2.86,243.62,2.45,256.16,0.94z M256.44,104.05c-37.67,0.93-67.2,28.88-67.41,67.04
	c-0.2,37.66,28.75,67.43,67.33,67.41c37.73-0.02,66.82-29.42,66.89-66.8C323.33,133.8,294.51,105.4,256.44,104.05z"/>
</svg>
