<svg id="Icons" xmlns="http://www.w3.org/2000/svg" viewBox="0 0 29 29"><defs><style>.cls-1{fill:none;stroke:#ffa100;stroke-linecap:round;stroke-linejoin:round;stroke-width:2px;}</style></defs><line class="cls-1" x1="14" y1="15" x2="20" y2="9"/><polygon class="cls-1" points="28 5 24 5 24 1 20 5 20 9 24 9 28 5"/><path class="cls-1" d="M5.17,5.94" transform="translate(10.76 4.5)"/><path class="cls-1" d="M8.05,9.32a5.08,5.08,0,0,1,.14,1.18A5,5,0,1,1,4.11,5.63" transform="translate(10.76 4.5)"/><path class="cls-1" d="M11.92,7.5a9,9,0,0,1,.5,3A9.18,9.18,0,1,1,3.24,1.32a9.31,9.31,0,0,1,3,.5" transform="translate(10.76 4.5)"/><path class="cls-1" d="M15.55,6.19a13.29,13.29,0,0,1,.69,4.31,13,13,0,0,1-13,13,13,13,0,0,1,0-26,13.25,13.25,0,0,1,4.26.68" transform="translate(10.76 4.5)"/></svg>