<svg xmlns="http://www.w3.org/2000/svg" version="1.1" xmlns:xlink="http://www.w3.org/1999/xlink" xmlns:svgjs="http://svgjs.com/svgjs" width="512" height="512" x="0" y="0" viewBox="0 0 682.667 682.667" style="enable-background:new 0 0 512 512" xml:space="preserve" class=""><g><defs><clipPath id="a" clipPathUnits="userSpaceOnUse"><path d="M0 512h512V0H0Z" fill="#ffa100" data-original="#000000" data-dm-inline-fill="" style="--dm-inline-fill:#d48100;"></path></clipPath></defs><g clip-path="url(#a)" transform="matrix(1.33333 0 0 -1.33333 0 682.667)"><path d="M0 0h-60v-332H77.574A102.423 102.423 0 0 0 150-362h62a102.423 102.423 0 0 0 72.426 30H422v302h-60" style="stroke-width: 30; stroke-linecap: butt; stroke-linejoin: miter; stroke-miterlimit: 10; stroke-dasharray: none; stroke-opacity: 1; --dm-inline-stroke:#ffae10;" transform="translate(75 377)" fill="none" stroke="#ffa100" stroke-width="30" stroke-linecap="butt" stroke-linejoin="miter" stroke-miterlimit="10" stroke-dasharray="none" stroke-opacity="" data-original="#000000" data-dm-inline-stroke="" class=""></path><path d="M0 0h9.401c27.299 19.501 59.7 30 93.898 30H181v-302h-77.701c-34.198 0-66.599-10.499-93.898-30H-9.401c-27.299 19.501-59.7 30-93.898 30H-181V60h60" style="stroke-width: 30; stroke-linecap: butt; stroke-linejoin: miter; stroke-miterlimit: 10; stroke-dasharray: none; stroke-opacity: 1; --dm-inline-stroke:#ffae10;" transform="translate(256 377)" fill="none" stroke="#ffa100" stroke-width="30" stroke-linecap="butt" stroke-linejoin="miter" stroke-miterlimit="10" stroke-dasharray="none" stroke-opacity="" data-original="#000000" data-dm-inline-stroke="" class=""></path><path d="M0 0v-302c66.275 0 121-53.725 121-120v302C121-53.725 66.275 0 0 0Z" style="stroke-width: 30; stroke-linecap: butt; stroke-linejoin: miter; stroke-miterlimit: 10; stroke-dasharray: none; stroke-opacity: 1; --dm-inline-stroke:#ffae10;" transform="translate(135 497)" fill="none" stroke="#ffa100" stroke-width="30" stroke-linecap="butt" stroke-linejoin="miter" stroke-miterlimit="10" stroke-dasharray="none" stroke-opacity="" data-original="#000000" data-dm-inline-stroke="" class=""></path></g></g></svg>