<svg xmlns="http://www.w3.org/2000/svg" version="1.1" xmlns:xlink="http://www.w3.org/1999/xlink" xmlns:svgjs="http://svgjs.com/svgjs" width="512" height="512" x="0" y="0" viewBox="0 0 511.788 511.788" style="enable-background:new 0 0 512 512" xml:space="preserve" class=""><g><path d="M272.978 401.664a7.504 7.504 0 0 0 7.505-7.505 7.505 7.505 0 0 0-7.505-7.506h-34.167c-4.145 0-7.505 3.36-7.505 7.506s3.36 7.505 7.505 7.505z" fill="#ffa100" data-original="#000000" data-dm-inline-fill="" style="--dm-inline-fill:#ffae10;"></path><path d="M478.941 71.432h-62.933l10.509-10.508c4.922-4.923 4.922-12.93 0-17.853l-17.16-17.16c-4.923-4.922-12.929-4.922-17.853 0l-10.639 10.64a92.653 92.653 0 0 0-21.254-8.815V12.702c0-6.96-5.663-12.624-12.624-12.624h-24.268c-6.96 0-12.623 5.663-12.623 12.624v15.033a92.656 92.656 0 0 0-21.255 8.816l-10.639-10.64c-4.924-4.922-12.929-4.922-17.853 0l-17.159 17.16c-4.922 4.923-4.922 12.93 0 17.853l10.51 10.508H32.848C14.735 71.432 0 86.168 0 104.281v296.744c0 18.113 14.735 32.848 32.848 32.848h69.603c4.145 0 7.505-3.36 7.505-7.506s-3.36-7.505-7.505-7.505H32.848c-9.835 0-17.837-8.002-17.837-17.837v-31.568h481.766v31.568c0 9.835-8.001 17.837-17.836 17.837H138.135a7.505 7.505 0 0 0-7.505 7.505 7.505 7.505 0 0 0 7.505 7.506h61.608c-.558 17.133-2.266 46.768-6.114 62.826h-26.011c-4.145 0-7.505 3.36-7.505 7.506s3.36 7.505 7.505 7.505h176.553a7.504 7.504 0 0 0 7.505-7.505 7.505 7.505 0 0 0-7.505-7.506h-26.01c-3.846-16.053-5.555-45.691-6.114-62.826h166.895c18.112 0 32.847-14.735 32.847-32.848V104.281c-.001-18.113-14.736-32.849-32.848-32.849zM208.986 496.699c3.97-19.437 5.335-49.091 5.771-62.826h82.274c.436 13.735 1.801 43.389 5.771 62.826zM265.75 62.254l-10.257-10.256 13.784-13.783 10.257 10.257c4.088 4.086 10.423 4.866 15.408 1.897a77.585 77.585 0 0 1 20.6-8.547c5.632-1.434 9.566-6.469 9.566-12.246V15.09h19.493v14.486c0 5.777 3.933 10.813 9.567 12.246a77.684 77.684 0 0 1 20.596 8.545c4.987 2.972 11.323 2.193 15.412-1.896l10.256-10.256 13.783 13.783-10.258 10.258c-4.084 4.086-4.864 10.422-1.896 15.409a77.587 77.587 0 0 1 8.546 20.596c1.432 5.634 6.468 9.569 12.246 9.569h14.487v19.493h-14.487c-5.779 0-10.815 3.935-12.245 9.566a77.609 77.609 0 0 1-8.549 20.599c-2.967 4.986-2.186 11.323 1.899 15.409l10.257 10.256-13.783 13.783-10.256-10.257c-4.089-4.087-10.426-4.866-15.409-1.898a77.593 77.593 0 0 1-20.599 8.548c-5.633 1.432-9.567 6.467-9.567 12.245v14.486h-19.493v-14.486c0-5.779-3.935-10.815-9.568-12.245a77.609 77.609 0 0 1-20.599-8.549c-4.985-2.966-11.32-2.186-15.409 1.899l-10.255 10.257-13.784-13.783 10.257-10.256c4.087-4.088 4.867-10.425 1.898-15.41a77.618 77.618 0 0 1-8.547-20.597c-1.431-5.633-6.467-9.567-12.246-9.567h-14.486V107.83h14.486c5.779 0 10.815-3.935 12.246-9.568a77.621 77.621 0 0 1 8.546-20.597c2.969-4.985 2.19-11.321-1.897-15.411zM31.291 124.445v230.001h-16.28V104.281c0-9.835 8.001-17.837 17.837-17.837H247.03a92.431 92.431 0 0 0-2.015 6.375h-15.033c-6.961 0-12.623 5.663-12.623 12.623v.416H49.879c-10.249-.001-18.588 8.337-18.588 18.587zm434.196 230H46.302v-230a3.582 3.582 0 0 1 3.577-3.577h167.479v8.841c0 6.96 5.663 12.624 12.623 12.624h15.033a92.656 92.656 0 0 0 8.816 21.254l-10.639 10.639c-4.922 4.923-4.922 12.93 0 17.853l17.159 17.16c4.924 4.922 12.929 4.922 17.853 0l10.639-10.639a92.645 92.645 0 0 0 21.255 8.817v15.033c0 6.96 5.663 12.623 12.623 12.623h24.268c6.96 0 12.624-5.662 12.624-12.623v-15.034c7.416-2.041 14.55-5 21.254-8.816l10.639 10.639c4.924 4.922 12.929 4.922 17.853 0l17.16-17.16c4.922-4.922 4.922-12.93 0-17.853l-10.64-10.639a92.59 92.59 0 0 0 8.816-21.254h15.034c6.96 0 12.624-5.663 12.624-12.624v-8.841h9.559a3.582 3.582 0 0 1 3.577 3.577v230zm31.29 0h-16.279v-230c0-10.25-8.338-18.588-18.588-18.588h-9.559v-.416c0-6.96-5.663-12.623-12.624-12.623h-15.033a92.431 92.431 0 0 0-2.015-6.375h56.262c9.835 0 17.836 8.002 17.836 17.837z" fill="#ffa100" data-original="#000000" data-dm-inline-fill="" style="--dm-inline-fill:#d48100;"></path><path d="M334.855 175.754c32.08 0 58.179-26.099 58.179-58.179 0-32.081-26.099-58.18-58.179-58.18-5.428 0-10.803.748-15.977 2.222a7.506 7.506 0 1 0 4.116 14.436 43.215 43.215 0 0 1 11.86-1.648c23.803 0 43.168 19.366 43.168 43.169s-19.365 43.168-43.168 43.168c-23.804 0-43.169-19.365-43.169-43.168 0-8.652 2.548-16.996 7.369-24.132a7.506 7.506 0 0 0-12.439-8.403c-6.504 9.626-9.941 20.876-9.941 32.534 0 32.083 26.099 58.181 58.181 58.181z" fill="#ffa100" data-original="#000000" data-dm-inline-fill="" style="--dm-inline-fill:#d48100;"></path><path d="M365.117 117.575c0-16.687-13.575-30.262-30.262-30.262s-30.262 13.575-30.262 30.262 13.575 30.262 30.262 30.262 30.262-13.575 30.262-30.262zm-45.514 0c0-8.409 6.842-15.251 15.251-15.251s15.251 6.842 15.251 15.251-6.842 15.251-15.251 15.251-15.251-6.841-15.251-15.251zM233.503 224.134h-10.187a72.71 72.71 0 0 0-5.896-14.214l7.208-7.209a11.348 11.348 0 0 0 3.348-8.079c0-3.051-1.188-5.919-3.347-8.079l-13.141-13.141c-4.454-4.455-11.702-4.456-16.157 0l-7.209 7.209a72.72 72.72 0 0 0-14.215-5.896v-10.187c0-6.3-5.125-11.424-11.425-11.424h-18.585c-6.299 0-11.425 5.125-11.425 11.424v10.187a72.683 72.683 0 0 0-14.215 5.896l-7.209-7.209c-4.454-4.455-11.702-4.454-16.157 0l-13.143 13.143c-4.452 4.455-4.452 11.703.002 16.156l7.209 7.209a72.725 72.725 0 0 0-5.897 14.214H72.874c-6.3 0-11.425 5.126-11.425 11.425v18.585c0 6.3 5.125 11.424 11.425 11.424h10.187a72.693 72.693 0 0 0 5.897 14.215l-7.211 7.21c-4.452 4.455-4.452 11.703.002 16.156l13.14 13.14a11.349 11.349 0 0 0 8.08 3.347 11.35 11.35 0 0 0 8.079-3.346l7.209-7.209a72.651 72.651 0 0 0 14.215 5.897v10.187c0 6.3 5.125 11.424 11.425 11.424h18.585c6.299 0 11.425-5.125 11.425-11.424v-10.187a72.626 72.626 0 0 0 14.215-5.897l7.207 7.207a11.35 11.35 0 0 0 8.08 3.348 11.35 11.35 0 0 0 8.079-3.346l13.14-13.141a11.348 11.348 0 0 0 3.348-8.079c0-3.051-1.188-5.919-3.347-8.079l-7.209-7.208a72.633 72.633 0 0 0 5.896-14.215h10.187c6.299 0 11.425-5.125 11.425-11.424v-18.585c0-6.3-5.125-11.425-11.425-11.425zm-3.586 26.423h-9.336c-5.229 0-9.786 3.557-11.082 8.652a57.69 57.69 0 0 1-6.353 15.309c-2.684 4.509-1.977 10.243 1.722 13.943l6.611 6.61-8.07 8.07-6.61-6.61c-3.699-3.7-9.433-4.407-13.943-1.722a57.646 57.646 0 0 1-15.31 6.352c-5.093 1.295-8.65 5.853-8.65 11.082v9.336h-11.413v-9.336c0-5.23-3.557-9.787-8.652-11.082a57.671 57.671 0 0 1-15.307-6.351c-4.511-2.687-10.245-1.979-13.943 1.72l-6.612 6.611-8.07-8.07 6.612-6.611c3.697-3.698 4.405-9.431 1.72-13.944a57.632 57.632 0 0 1-6.352-15.306c-1.294-5.094-5.851-8.653-11.082-8.653H76.46v-11.413h9.336c5.231 0 9.788-3.557 11.081-8.651a57.718 57.718 0 0 1 6.354-15.31c2.684-4.509 1.977-10.242-1.722-13.942l-6.612-6.611 8.07-8.07 6.611 6.611c3.699 3.7 9.433 4.408 13.943 1.722a57.69 57.69 0 0 1 15.309-6.353c5.094-1.295 8.651-5.852 8.651-11.081v-9.336h11.413v9.336c0 5.229 3.557 9.786 8.65 11.081a57.686 57.686 0 0 1 15.308 6.352c4.512 2.688 10.246 1.978 13.943-1.72l6.611-6.612 8.07 8.07-6.612 6.612a11.429 11.429 0 0 0-1.72 13.942 57.696 57.696 0 0 1 6.353 15.31c1.295 5.093 5.852 8.65 11.082 8.65h9.336v11.413z" fill="#ffa100" data-original="#000000" data-dm-inline-fill="" style="--dm-inline-fill:#d48100;"></path><path d="M153.188 205.141c-21.896 0-39.71 17.814-39.71 39.71s17.814 39.71 39.71 39.71 39.71-17.814 39.71-39.71-17.813-39.71-39.71-39.71zm0 64.409c-13.619 0-24.699-11.079-24.699-24.699s11.08-24.699 24.699-24.699 24.699 11.079 24.699 24.699-11.079 24.699-24.699 24.699z" fill="#ffa100" data-original="#000000" data-dm-inline-fill="" style="--dm-inline-fill:#d48100;"></path></g></svg>