<svg xmlns="http://www.w3.org/2000/svg" version="1.1" xmlns:xlink="http://www.w3.org/1999/xlink" xmlns:svgjs="http://svgjs.com/svgjs" width="512" height="512" x="0" y="0" viewBox="0 0 128 128" style="enable-background:new 0 0 512 512" xml:space="preserve" class=""><g><path d="m78.63 94.1-4.48-1.49-.15-14.5a47 47 0 0 0 4-10.75h.54a5 5 0 0 0 3.74-1.94l.1-.12c3.31-3.69 6.29-16.19 5.48-20.69a8.24 8.24 0 0 0-.85-2.3V36C87 10.43 76.61 0 51.15 0 28.18 0 15 13.12 15 36v6.34a8.24 8.24 0 0 0-.85 2.3c-.81 4.5 2.17 17 5.48 20.69l.1.12a5 5 0 0 0 3.73 1.94A46.29 46.29 0 0 0 27.66 78l-.46 14.49-25.83 8.61a2 2 0 0 0 1.26 3.8l24.54-8.18L29 126.13a2 2 0 0 0 2 1.87h.13a2 2 0 0 0 1.87-2.12l-.21-3.32 3.63 4.67a2 2 0 0 0 1.5.77H38a2 2 0 0 0 1.47-.65L50 115.86a4 4 0 0 0 1 .14 3.89 3.89 0 0 0 1-.15l10.55 11.5A2 2 0 0 0 64 128h.08a2 2 0 0 0 1.5-.77l3.52-4.53-.1 3.24a2 2 0 0 0 1.94 2.06H71a2 2 0 0 0 2-1.94l.92-29.31 3.45 1.15a2 2 0 1 0 1.26-3.8ZM31.42 76.49a.41.41 0 0 1-.07-.11 44.1 44.1 0 0 1-4.44-11.82 74.26 74.26 0 0 1-1.76-14.61v-1.67C26.49 51.65 29.53 54 36 54c11.41 0 12.6-9.6 13-12.76 0-.31.06-.76.07-1.24h4.1c0 .48 0 .93.07 1.24C53.61 44.4 54.79 54 66.2 54c5.26 0 8.26-1.56 10-4-.75 24.39-10.09 39-25 39-7.2 0-14.67-3.6-19.78-12.51ZM66.2 32a25.73 25.73 0 0 0-12 3.29 2 2 0 0 0-.7.71h-4.77a2 2 0 0 0-.7-.71A25.68 25.68 0 0 0 36 32a26.85 26.85 0 0 0-10.46 2c1-8.08 3.88-14.24 11-17.48a7.29 7.29 0 0 1 3-.53 37.18 37.18 0 0 1 4.53.41 53.35 53.35 0 0 0 7 .57 44.27 44.27 0 0 0 7-.68c2.84-.43 5.08-.78 6.77-.07 7.58 3.18 10.27 9.5 11.16 17.52A27.25 27.25 0 0 0 66.2 32Zm8 5.35V41c0 6.22-1.15 9-8 9s-8.42-4.44-9-9.24a24.35 24.35 0 0 1 0-2.53 21.54 21.54 0 0 1 9-2.23 23.49 23.49 0 0 1 8 1.35ZM45 40.76c-.6 4.8-2.1 9.24-9 9.24s-8-2.78-8-9v-3.65A23.54 23.54 0 0 1 36 36a21.71 21.71 0 0 1 9 2.23c.06 1.02.07 2.12 0 2.53Zm34.36 21.91-.12.13c-.16.18-.28.32-.39.42a89.3 89.3 0 0 0 1.3-13.16c.06-2.19.13-4.39.15-6.58a2.63 2.63 0 0 1 2.12-.34 3.45 3.45 0 0 1 1.46 2.22c.66 3.64-2.26 14.78-4.52 17.31ZM51.15 4C74.37 4 83 12.67 83 36v3.15a6.1 6.1 0 0 0-2.73.09c-.28-11.55-2.63-22-13.82-26.68-2.74-1.14-5.74-.68-8.93-.19a40.79 40.79 0 0 1-6.37.63 48.84 48.84 0 0 1-6.52-.54c-3.64-.47-6.78-.87-9.7.45C24 17.83 21.5 28.42 21.09 39.11a5.75 5.75 0 0 0-2.09 0V36c0-11.95 4.18-32 32.15-32Zm-33 41.36a3.45 3.45 0 0 1 1.46-2.22 2 2 0 0 1 1.43 0c0 2.34.08 4.65.14 6.87a83.35 83.35 0 0 0 1.22 12.25c-2.25-3-4.91-13.42-4.28-16.9Zm20 77.54-5.55-7.13a2.61 2.61 0 0 0-.23-.24l-1-15.92c4.39 5 10.34 11.21 15 14.36Zm-7-29.61.32-9.67A25.41 25.41 0 0 0 51.15 93 24.76 24.76 0 0 0 70 84l.1 8.35C62.78 101.82 53.46 111.86 51 112c-2.44-.08-12.11-9.62-19.83-18.71Zm32.7 29.61-8.25-9c4.42-3.23 10-9.59 14.22-14.75l-.53 16.77Z" fill="#ffa100" data-original="#000000" data-dm-inline-fill="" style="--dm-inline-fill:#d48100;"></path><path d="M40.78 71.9a18.29 18.29 0 0 1 4.37-.9 10.76 10.76 0 0 1 3.12 1.08 7.51 7.51 0 0 0 2.88.92 8.31 8.31 0 0 0 3.39-1.21 17.7 17.7 0 0 1 1.7-.78c.66.06 2.75.51 4.42.93a2 2 0 1 0 1-3.88A36.37 36.37 0 0 0 56.15 67a8.35 8.35 0 0 0-3.4 1.21c-.47.24-1.21.61-1.6.75-.3-.11-.83-.34-1.23-.53A12.51 12.51 0 0 0 45.15 67a21.77 21.77 0 0 0-5.63 1.1 2 2 0 0 0 1.26 3.8ZM45.15 60a9.64 9.64 0 0 1 3.08.5 8.78 8.78 0 0 0 5.84 0 9.64 9.64 0 0 1 3.08-.5 2 2 0 1 0 0-4 13.66 13.66 0 0 0-4.19.65 6 6 0 0 1-1.81.35 5.9 5.9 0 0 1-1.81-.35 13.72 13.72 0 0 0-4.19-.65 2 2 0 0 0 0 4ZM31.36 41.89a2 2 0 0 0 2.68.9 9.25 9.25 0 0 1 1.14-.44 2 2 0 0 0 3.85.31 2.07 2.07 0 0 0 1.12.34 2 2 0 0 0 1.41-3.41A6.29 6.29 0 0 0 37.15 38a12.32 12.32 0 0 0-4.9 1.21 2 2 0 0 0-.89 2.68ZM60.59 39.59a2 2 0 0 0 0 2.85A2 2 0 0 0 62 43a1.92 1.92 0 0 0 1.13-.38 2 2 0 0 0 3.87-.27 8.91 8.91 0 0 1 1.15.44 2 2 0 1 0 1.78-3.58A12.2 12.2 0 0 0 65 38a6.29 6.29 0 0 0-4.41 1.59ZM53 74h-4a2 2 0 0 0 0 4h4a2 2 0 0 0 0-4ZM124.75 82.88a7.67 7.67 0 0 1-1.63-1.5 7.33 7.33 0 0 1 .44-2.3c.48-1.74 1.09-3.9-.14-5.59s-3.5-1.8-5.31-1.87a7.55 7.55 0 0 1-2.29-.29 7.38 7.38 0 0 1-1-2.06c-.63-1.71-1.41-3.85-3.44-4.5s-3.75.54-5.31 1.58a7.18 7.18 0 0 1-2.07 1.14 7.18 7.18 0 0 1-2.11-1.14c-1.56-1-3.34-2.22-5.31-1.58s-2.81 2.79-3.44 4.5a7.38 7.38 0 0 1-1 2.06 7.48 7.48 0 0 1-2.28.29c-1.82.07-4.07.16-5.32 1.87s-.62 3.85-.14 5.59a7.33 7.33 0 0 1 .44 2.3 7.94 7.94 0 0 1-1.63 1.5C81.8 84 80 85.43 80 87.6s1.8 3.57 3.25 4.71a7.94 7.94 0 0 1 1.63 1.5 7.33 7.33 0 0 1-.44 2.3c-.48 1.74-1.09 3.9.14 5.6s3.5 1.79 5.32 1.86h.1V126a2 2 0 0 0 3.2 1.6l10.8-8.1 10.8 8.1a2 2 0 0 0 1.2.4 2 2 0 0 0 .89-.21A2 2 0 0 0 118 126v-22.42h.1c1.82-.07 4.07-.16 5.32-1.86s.62-3.86.14-5.6a7.28 7.28 0 0 1-.44-2.29 7.68 7.68 0 0 1 1.63-1.51c1.45-1.14 3.25-2.55 3.25-4.71s-1.8-3.61-3.25-4.73ZM105.2 115.4a2 2 0 0 0-2.4 0L94 122v-14a4.57 4.57 0 0 0 2.58 2.45c2 .63 3.75-.55 5.31-1.59a7.18 7.18 0 0 1 2.11-1.16 7.18 7.18 0 0 1 2.11 1.14 8 8 0 0 0 4.17 1.77 3.87 3.87 0 0 0 1.14-.18A4.57 4.57 0 0 0 114 108v14Zm17.08-26.24a7.79 7.79 0 0 0-3 3.42 8.09 8.09 0 0 0 .38 4.61 9.23 9.23 0 0 1 .45 2.14 9.13 9.13 0 0 1-2.2.25 7.89 7.89 0 0 0-4.49 1 7.9 7.9 0 0 0-2.35 3.91 11.65 11.65 0 0 1-.89 2 9.53 9.53 0 0 1-1.89-1.08 8.23 8.23 0 0 0-4.29-1.71 8.23 8.23 0 0 0-4.33 1.81 9.46 9.46 0 0 1-1.86 1.07 9.61 9.61 0 0 1-.92-2 7.9 7.9 0 0 0-2.35-3.91 7.89 7.89 0 0 0-4.49-1 11.75 11.75 0 0 1-2.2-.21 9.3 9.3 0 0 1 .45-2.18 8.09 8.09 0 0 0 .38-4.61 7.79 7.79 0 0 0-3-3.42A8.5 8.5 0 0 1 84 87.6a8.51 8.51 0 0 1 1.72-1.6 7.77 7.77 0 0 0 3-3.41A8.12 8.12 0 0 0 88.3 78a9.23 9.23 0 0 1-.45-2.14 9.18 9.18 0 0 1 2.2-.24 8.06 8.06 0 0 0 4.49-1.05 7.93 7.93 0 0 0 2.35-3.92 11.65 11.65 0 0 1 .89-2.05 9.53 9.53 0 0 1 1.89 1.08 8.23 8.23 0 0 0 4.33 1.81 8.23 8.23 0 0 0 4.33-1.81 10 10 0 0 1 1.86-1.07 9.84 9.84 0 0 1 .92 2 7.93 7.93 0 0 0 2.35 3.92 8.06 8.06 0 0 0 4.54 1.09 11.07 11.07 0 0 1 2.2.2 9.2 9.2 0 0 1-.5 2.18 8.12 8.12 0 0 0-.38 4.62 7.77 7.77 0 0 0 3 3.41A8.51 8.51 0 0 1 124 87.6a8.5 8.5 0 0 1-1.72 1.56Z" fill="#ffa100" data-original="#000000" data-dm-inline-fill="" style="--dm-inline-fill:#d48100;"></path><path d="M104 75.29a12.31 12.31 0 1 0 12.31 12.31A12.32 12.32 0 0 0 104 75.29Zm0 20.62a8.31 8.31 0 1 1 8.31-8.31 8.32 8.32 0 0 1-8.31 8.31Z" fill="#ffa100" data-original="#000000" data-dm-inline-fill="" style="--dm-inline-fill:#d48100;"></path></g></svg>